<svg width="137" height="137" viewBox="0 0 137 137" fill="none" xmlns="http://www.w3.org/2000/svg">
<g clip-path="url(#clip0_334_306)">
<rect width="137" height="137" rx="68.5" fill="#FFD200"/>
<path d="M57.3623 47.34C53.915 36.4314 62.8825 30.7326 67.7971 29.2468C64.5965 33.6463 68.5167 37.4225 70.8769 38.7607C79.1889 42.8804 82.4923 48.5594 83.105 50.8839C84.8231 56.9706 81.3243 61.726 79.3601 63.3429L59.8481 52.4214C58.2268 49.7509 57.5153 47.9211 57.3623 47.34Z" fill="#3FC366"/>
<path d="M45.5 52.433C21.1 55.233 5.66667 74.5996 1 83.933V155.433L65.5 176.433L115.5 118.933C117.1 103.733 110.167 86.933 106.5 80.433C90.9 53.633 59.3333 50.5996 45.5 52.433Z" fill="white"/>
<path d="M30 66.1031C10 72.9031 4.33333 89.6031 4 97.1031L1 129.603L88 148.103L103.5 127.603C110.7 113.203 105.167 97.9365 101.5 92.1031C83.5 58.5031 46.3333 60.7698 30 66.1031Z" fill="#FFEB99"/>
<path d="M44.4018 72.9303C40.1141 71.8642 35.2338 76.6483 33.5015 83.6159C32.9559 86.0773 32.1647 91.6 33.3647 94C35.5314 94.3333 40.7647 95.4 44.3647 97C45.4741 96.151 47.96 93.0576 49.0288 87.4765C50.7611 80.5089 48.6896 73.9963 44.4018 72.9303Z" fill="#4C4519"/>
<path d="M86.0279 87.7963C81.8883 86.2519 76.4981 90.4532 73.9885 97.18C73.168 99.5638 71.757 104.962 72.6778 107.482C74.7928 108.058 79.8718 109.71 83.2677 111.707C84.466 110.989 87.2859 108.197 88.9793 102.773C91.4888 96.0457 90.1674 89.3406 86.0279 87.7963Z" fill="#4C4519"/>
<ellipse cx="25.2231" cy="97.6506" rx="11.0433" ry="5.82311" transform="rotate(16.0578 25.2231 97.6506)" fill="#FFA4A4"/>
<ellipse cx="85.4825" cy="120.172" rx="11.0433" ry="5.82311" transform="rotate(26.7611 85.4825 120.172)" fill="#FFA4A4"/>
</g>
<defs>
<clipPath id="clip0_334_306">
<rect width="137" height="137" rx="68.5" fill="white"/>
</clipPath>
</defs>
</svg>
