<svg width="64" height="66" viewBox="5 -3 64 66" fill="none" xmlns="http://www.w3.org/2000/svg">
<path opacity="0.108551" fill-rule="evenodd" clip-rule="evenodd" d="M36.6565 58.8611V56.8647V51.141C28.3924 46.1048 23.753 42.957 22.7383 41.6976C21.7885 40.5187 17.521 32.3775 26.645 33.7839C27.0137 33.8407 35.3663 38.012 36.6565 38.012C37.3987 38.012 37.5936 35.4363 37.2412 30.2848L62.2409 17.163V44.6785L55.8504 48.4415L55.0853 36.1155C54.7188 34.1832 54.0308 33.2171 53.0214 33.2171C51.5074 33.2171 47.1054 33.875 45.9423 37.5835C45.167 40.0558 45.0568 45.4969 45.612 53.9069L36.6565 58.8611Z" fill="#FD675A"/>
<path d="M62.2409 16.2882V44.1393L54.8313 48.6904C54.8313 40.9788 54.8313 36.7441 54.8313 35.9861C54.8313 34.8492 53.064 31.9004 49.6239 33.3468C47.3306 34.3111 45.9252 36.1668 45.4079 38.914V53.8787L37.6849 58.8611" stroke="#FD675A" stroke-width="2.94727" stroke-linecap="round" stroke-linejoin="round"/>
<path fill-rule="evenodd" clip-rule="evenodd" d="M12.2922 16.1652L12.2884 44.5461L37.1329 58.8073L37.1937 50.6286L24.7824 43.6594C22.3091 42.0003 20.8311 40.3706 20.3482 38.7704C19.6238 36.3701 20.4785 33.5903 22.7595 32.8244C25.0405 32.0585 26.7733 33.3863 28.4913 34.3186C29.6367 34.9401 32.5709 36.5954 37.294 39.2845L37.294 30.3763" fill="#FFBB00" fill-opacity="0.141287"/>
<path d="M12.2922 16.1652L12.2884 44.5461L37.1329 58.8073L37.1937 50.6286L24.7824 43.6594C22.3091 42.0003 20.8311 40.3706 20.3482 38.7704C19.6238 36.3701 20.4785 33.5903 22.7595 32.8244C25.0405 32.0585 26.7733 33.3863 28.4913 34.3186C29.6367 34.9401 32.5709 36.5954 37.294 39.2845L37.294 30.3763" stroke="#FFBB00" stroke-width="2.94727" stroke-linecap="round" stroke-linejoin="round"/>
<path fill-rule="evenodd" clip-rule="evenodd" d="M62.2408 16.4689L53.652 11.5453C47.2294 15.1747 43.0284 17.514 41.0488 18.5631C38.0795 20.1367 34.1077 20.4447 31.8853 18.958C29.6629 17.4713 29.7078 14.6738 31.8853 13.1548C33.3369 12.1421 37.4323 9.79299 44.1715 6.10745L37.2411 2L12.2414 16.1497L37.2411 30.2848" fill="#31A0FE" fill-opacity="0.0967019"/>
<path d="M62.2408 16.4689L53.652 11.5453C47.2294 15.1747 43.0284 17.514 41.0488 18.5631C38.0795 20.1367 34.1077 20.4447 31.8853 18.958C29.6629 17.4713 29.7078 14.6738 31.8853 13.1548C33.3369 12.1421 37.4323 9.79299 44.1715 6.10745L37.2411 2L12.2414 16.1497L37.2411 30.2848" stroke="#31A0FE" stroke-width="2.94727" stroke-linejoin="round"/>
<path d="M37.3891 30.2848L62.2409 16.2882" stroke="#FD675A" stroke-width="2.94727" stroke-linecap="round" stroke-linejoin="round"/>
<path d="M37.3891 29.9932V37.5746" stroke="#FFBB00" stroke-width="2.94727" stroke-linecap="round"/>
</svg>
